# xmcd
#
# Track frame offsets: 
#        150
#        21946
#        41974
#        61757
#        79429
#        100886
#        117545
#        135439
#        156166
#        176271
#
# Disc length: 2633 seconds
#
# Revision: 0
# Processed by: cddbd v1.5.2PL0 Copyright (c) Steve Scherf et al.
# Submitted via: ExactAudioCopy v1.0b1
#
DISCID=820a470a
DTITLE=Peter Sommer - Alt Forladt
DYEAR=2013
DGENRE=Blues
TTITLE0=Pænt Goddag, Pænt Farvel
TTITLE1=Tvivlen Er I Huset (Del 1)
TTITLE2=Alt Forladt
TTITLE3=Hvorfor Løb Vi
TTITLE4=Lamineret
TTITLE5=Hvor Langt Skal Vi Ud
TTITLE6=For Evigt
TTITLE7=Beruset
TTITLE8=Tvivlen Er I Huset (Del 2)
TTITLE9=Mod Nye Højder
EXTD=
EXTT0=
EXTT1=
EXTT2=
EXTT3=
EXTT4=
EXTT5=
EXTT6=
EXTT7=
EXTT8=
EXTT9=
PLAYORDER=
